<?xml version="1.0" encoding="UTF-8"?>
<svg id="Layer_1" data-name="Layer 1" xmlns="http://www.w3.org/2000/svg" xmlns:xlink="http://www.w3.org/1999/xlink" version="1.1" viewBox="0 0 578.5 464.3">
  <defs>
    <style>
      .cls-1 {
        fill: none;
      }

      .cls-1, .cls-2, .cls-3, .cls-4, .cls-5, .cls-6 {
        stroke-width: 0px;
      }

      .cls-2 {
        fill: #009b83;
      }

      .cls-3 {
        fill: #97358f;
      }

      .cls-4 {
        fill: url(#PL_purple);
      }

      .cls-5 {
        fill: #059a83;
      }

      .cls-6 {
        fill: url(#PL_green);
      }
    </style>
    <pattern id="PL_green" data-name="PL+ green" x="0" y="0" width="350.9" height="350.9" patternTransform="translate(-165.2 -74.6)" patternUnits="userSpaceOnUse" viewBox="0 0 350.9 350.9">
      <g>
        <rect class="cls-1" x="0" y="0" width="350.9" height="350.9"/>
        <rect class="cls-2" x="0" y="0" width="350.9" height="350.9"/>
      </g>
    </pattern>
    <pattern id="PL_purple" data-name="PL+ purple" x="0" y="0" width="350.9" height="350.9" patternTransform="translate(-951.1 -65.5)" patternUnits="userSpaceOnUse" viewBox="0 0 350.9 350.9">
      <g>
        <rect class="cls-1" x="0" y="0" width="350.9" height="350.9"/>
        <rect class="cls-3" x="0" y="0" width="350.9" height="350.9"/>
      </g>
    </pattern>
  </defs>
  <rect class="cls-3" x="-1466.8" y="186.2" width="350.9" height="350.9"/>
  <rect class="cls-6" x="-1466.8" y="602.6" width="350.9" height="350.9"/>
  <g>
    <path class="cls-4" d="M288.1,464.3c-69.9,0-139.7.3-209.6-.2-28.9-.2-50.4-14.3-64.4-39.7-5.9-10.7-8.3-22.4-8.3-34.7,0-105.8,0-211.6,0-317.4,0-19.1,7.2-35.7,20.3-49.5C37.1,11.5,50.2,4.2,65.7,1.4,70.2.5,74.8,0,79.4,0c59.1,0,118.2,0,177.3,0,4.1,0,6.7,1.8,7.5,5.1.3,1.1.2,2.3.2,3.4,0,2.4,0,4.8,0,7.3,0,3.8-2.8,6.5-6.6,6.6-.9,0-1.9,0-2.8,0-58.2,0-116.3,0-174.5,0-25.4,0-46.2,17-51.3,41.8-.6,2.9-.8,5.9-.8,8.8,0,108.3,0,216.6,0,324.9,0,20.2,15.2,38.8,35,43,3.9.8,7.7.8,11.6.6,17.4-1,34.7-2.8,51.9-5.6,20.7-3.3,41.1-7.4,61.3-12.9,30.9-8.3,61.1-18.4,90.8-30.3,31.3-12.6,61.6-27.2,91-43.8,6.7-3.8,13.5-7,21.3-8,5.2-.7,10.1.5,14.6,2.9,5.3,2.8,9.2,7.3,12.7,12,5.9,7.8,10.5,16.3,14.7,25.1,4.6,9.7,9,19.5,13.7,29.2,4.4,9.2,10.4,17.2,19.1,22.8,6.8,4.4,14.3,6.9,22.2,8.3,25.7,4.5,50.9-11.5,57.9-36.6,1.3-4.6,1.9-9.2,1.9-14,0-105.6,0-211.2,0-316.9,0-25.5-18.9-47.2-44.2-50.8-2.6-.4-5.2-.6-7.9-.6-43.9,0-87.9,0-131.8,0-4.7,0-8.1-2.9-7.8-7.8.2-2.5,0-5.1,0-7.6,0-4.3,2.6-6.9,7-7.1.4,0,.9,0,1.3,0,43.8,0,87.7,0,131.5,0,32.2,0,60,19.8,70.5,50.3,2.5,7.4,3.8,15.1,3.8,23,0,106,0,212,0,318,0,19.4-7,36.3-20.5,50.3-14.6,15.2-32.7,22.7-53.8,22.7-69.4,0-138.7,0-208.1,0Z"/>
    <path class="cls-4" d="M61.4,80.8h47.3c-.6,9.8-1.2,19.6-1.8,29.3,1.3.7,1.6-.1,2-.9,2.6-5.3,5.8-10.2,9.9-14.5,7.9-8.2,17.8-12.4,28.8-14.5,6.7-1.3,13.5-1.7,20.3-1.8,10-.1,20,.5,29.7,2.8,10.4,2.5,19.9,6.6,27.7,14.1,7.2,6.9,11.6,15.5,14.5,24.9,2.8,8.8,4,18,4.7,27.2,1.5,18.2,1.2,36.4.8,54.6-.3,12.6-1.5,25.1-5.2,37.2-3.3,10.8-8.6,20.3-17.6,27.4-7.7,6.2-16.7,9.7-26.3,11.5-18,3.4-36.1,3.7-54.1-.6-9.2-2.2-17.4-6.3-23.9-13.4-3-3.2-5.4-6.8-7.1-10.8-.5-1.1-1.1-1.6-2.4-1.1v111.4h-47.4V80.8ZM198.4,179.1c0,0-.2,0-.3,0,0-4.7,0-9.3,0-14-.2-8.7-.6-17.4-2.7-26-3.1-12.5-10.9-20.4-23.6-22.9-12.3-2.5-24.6-2.1-36.7.6-12.8,2.9-20.7,10.8-23.7,23.7-1.9,8.2-2.4,16.5-2.5,24.8-.1,10.3,0,20.6.1,31,.1,7.6.9,15.1,2.7,22.5,3.2,12.7,11,20.8,23.9,23.5,5.3,1.1,10.7,1.7,16.1,2,7.3.4,14.6.2,21.8-1.3,10.2-2.1,16.9-8.1,20.3-17.9,2.5-7.2,3.4-14.7,3.8-22.3.4-7.9.5-15.8.7-23.7Z"/>
    <path class="cls-5" d="M334.2,278.4h-47.4V0c.5,0,1,0,1.6,0,14.7,0,29.3,0,44,0,1.4,0,1.8.4,1.8,1.8,0,91.7,0,183.3,0,275v1.7Z"/>
    <path class="cls-5" d="M516.5,425.9c-.8.2-1.2.4-1.7.5-7.8,1.3-15.6,2.2-23.4.8-8.9-1.5-17.2-4.5-23.8-11-4.3-4.2-7.1-9.3-9.6-14.6-6-12.6-11.8-25.3-18.1-37.7-4.6-9-10.1-17.4-17.1-24.7-7.6-7.9-16.8-12.6-27.9-12.9-7-.2-13.8,1.3-20.1,4.3-8.5,4.1-16.7,8.6-24.9,13.1-24.9,13.5-50.6,25.4-76.9,35.9-27,10.8-54.6,20-82.6,27.8-19.7,5.5-39.7,9.8-59.9,13.2-22.9,3.9-46,6.2-69.2,6.9-1.2,0-2.4.2-3.6.2-1.2,0-2.4,0-3.7-.3.8-.3,1.5-.6,2.3-.9,32-11.9,63.9-23.9,95.9-35.8,45.5-17,90.9-34,136.4-51,29.7-11.1,59.5-22.2,89.2-33.4,7.2-2.7,14.5-5.1,22.2-5.6,6.9-.4,13.7.2,20.4,2,7.6,2.1,14.4,5.8,20.5,10.8,7.6,6.2,13.4,14,18.2,22.5,5.6,10.1,9.4,21,12.3,32.2,2.6,10.3,5.2,20.6,8,30.9,1.3,4.9,2.9,9.7,5.6,14,3.8,6,9.5,9,16.4,10.1,5,.7,9.9,1.6,15.2,2.5Z"/>
    <path class="cls-4" d="M450,80.8v57h54.8v14.5h-54.8v57.4h-15.5v-57.4h-54.8v-14.5h54.8v-57h15.5Z"/>
  </g>
</svg>